<svg version="1.1" xmlns="http://www.w3.org/2000/svg" xmlns:xlink="http://www.w3.org/1999/xlink" width="400" height="400" viewBox="0 0 400 400"><defs/><g><rect fill="rgb(82,71,64)" stroke="none" x="0" y="0" width="400" height="400" transform="matrix(1 0 0 1 0 0)" fill-opacity="1"/><svg xmlns="http://www.w3.org/2000/svg" xml:space="preserve" fill-rule="evenodd" stroke-linecap="round" stroke-linejoin="round" stroke-miterlimit="1.5" clip-rule="evenodd" viewBox="0 0 1272 513" id="gen-svg-0" width="133.33333333333334" height="133.33333333333334" x="0" y="0"><path fill="#9A947C" stroke="#CCAC95" stroke-width="7%" d="M4.339 4.34h1263.28v503.913H4.339z"/><path fill="none" stroke="#748B83" stroke-width="7%" d="M136.401 251.227c379.034-104.802 548.464-40.174 548.464-40.174l218.34 115.282 202.62-20.961 92.57-82.094"/></svg><svg xmlns="http://www.w3.org/2000/svg" xml:space="preserve" fill-rule="evenodd" stroke-linecap="round" stroke-linejoin="round" stroke-miterlimit="1.5" clip-rule="evenodd" viewBox="0 0 1272 513" id="gen-svg-1" width="133.33333333333334" height="133.33333333333334" x="0" y="133.33333333333334"><path fill="#9A947C" stroke="#9D7E79" stroke-width="7%" d="M4.339 4.34h1263.28v503.913H4.339z"/><path fill="none" stroke="#CCAC95" stroke-width="7%" d="M136.401 251.227c379.034-104.802 548.464-40.174 548.464-40.174l218.34 115.282 202.62-20.961 92.57-82.094"/></svg><svg xmlns="http://www.w3.org/2000/svg" xml:space="preserve" fill-rule="evenodd" stroke-linecap="round" stroke-linejoin="round" stroke-miterlimit="1.5" clip-rule="evenodd" viewBox="0 0 1272 513" id="gen-svg-2" width="133.33333333333334" height="133.33333333333334" x="0" y="266.6666666666667"><path fill="#748B83" stroke="#5B756C" stroke-width="7%" d="M4.339 4.34h1263.28v503.913H4.339z"/><path fill="none" stroke="#CCAC95" stroke-width="7%" d="M136.401 251.227c379.034-104.802 548.464-40.174 548.464-40.174l218.34 115.282 202.62-20.961 92.57-82.094"/></svg><svg xmlns="http://www.w3.org/2000/svg" xml:space="preserve" fill-rule="evenodd" stroke-linecap="round" stroke-linejoin="round" stroke-miterlimit="1.5" clip-rule="evenodd" viewBox="0 0 1272 513" id="gen-svg-3" width="133.33333333333334" height="133.33333333333334" x="133.33333333333334" y="0"><path fill="#CCAC95" stroke="#5B756C" stroke-width="7%" d="M4.339 4.34h1263.28v503.913H4.339z"/><path fill="none" stroke="#9D7E79" stroke-width="7%" d="M136.401 251.227c379.034-104.802 548.464-40.174 548.464-40.174l218.34 115.282 202.62-20.961 92.57-82.094"/></svg><svg xmlns="http://www.w3.org/2000/svg" xml:space="preserve" fill-rule="evenodd" stroke-linecap="round" stroke-linejoin="round" stroke-miterlimit="1.5" clip-rule="evenodd" viewBox="0 0 1272 513" id="gen-svg-4" width="133.33333333333334" height="133.33333333333334" x="133.33333333333334" y="133.33333333333334"><path fill="#9A947C" stroke="#CCAC95" stroke-width="7%" d="M4.339 4.34h1263.28v503.913H4.339z"/><path fill="none" stroke="#5B756C" stroke-width="7%" d="M136.401 251.227c379.034-104.802 548.464-40.174 548.464-40.174l218.34 115.282 202.62-20.961 92.57-82.094"/></svg><svg xmlns="http://www.w3.org/2000/svg" xml:space="preserve" fill-rule="evenodd" stroke-linecap="round" stroke-linejoin="round" stroke-miterlimit="1.5" clip-rule="evenodd" viewBox="0 0 1272 513" id="gen-svg-5" width="133.33333333333334" height="133.33333333333334" x="133.33333333333334" y="266.6666666666667"><path fill="#748B83" stroke="#9D7E79" stroke-width="7%" d="M4.339 4.34h1263.28v503.913H4.339z"/><path fill="none" stroke="#CCAC95" stroke-width="7%" d="M136.401 251.227c379.034-104.802 548.464-40.174 548.464-40.174l218.34 115.282 202.62-20.961 92.57-82.094"/></svg><svg xmlns="http://www.w3.org/2000/svg" xml:space="preserve" fill-rule="evenodd" stroke-linecap="round" stroke-linejoin="round" stroke-miterlimit="1.5" clip-rule="evenodd" viewBox="0 0 1272 513" id="gen-svg-6" width="133.33333333333334" height="133.33333333333334" x="266.6666666666667" y="0"><path fill="#9D7E79" stroke="#748B83" stroke-width="7%" d="M4.339 4.34h1263.28v503.913H4.339z"/><path fill="none" stroke="#5B756C" stroke-width="7%" d="M136.401 251.227c379.034-104.802 548.464-40.174 548.464-40.174l218.34 115.282 202.62-20.961 92.57-82.094"/></svg><svg xmlns="http://www.w3.org/2000/svg" xml:space="preserve" fill-rule="evenodd" stroke-linecap="round" stroke-linejoin="round" stroke-miterlimit="1.5" clip-rule="evenodd" viewBox="0 0 1272 513" id="gen-svg-7" width="133.33333333333334" height="133.33333333333334" x="266.6666666666667" y="133.33333333333334"><path fill="#9D7E79" stroke="#CCAC95" stroke-width="7%" d="M4.339 4.34h1263.28v503.913H4.339z"/><path fill="none" stroke="#748B83" stroke-width="7%" d="M136.401 251.227c379.034-104.802 548.464-40.174 548.464-40.174l218.34 115.282 202.62-20.961 92.57-82.094"/></svg><svg xmlns="http://www.w3.org/2000/svg" xml:space="preserve" fill-rule="evenodd" stroke-linecap="round" stroke-linejoin="round" stroke-miterlimit="1.5" clip-rule="evenodd" viewBox="0 0 1272 513" id="gen-svg-8" width="133.33333333333334" height="133.33333333333334" x="266.6666666666667" y="266.6666666666667"><path fill="#9D7E79" stroke="#5B756C" stroke-width="7%" d="M4.339 4.34h1263.28v503.913H4.339z"/><path fill="none" stroke="#9A947C" stroke-width="7%" d="M136.401 251.227c379.034-104.802 548.464-40.174 548.464-40.174l218.34 115.282 202.62-20.961 92.57-82.094"/></svg></g></svg>