<svg xmlns="http://www.w3.org/2000/svg" id="Layer_1" width="800" height="800" data-name="Layer 1" viewBox="0 0 64 64"><defs><style>.cls-2{fill:#fd8266}</style></defs><path fill="#fd5933" d="M42.31 36.28h.01l9 6.65c2.2 1.63 3.1 4.49 2.18 6.94l-.99 2.64-2.64.99c-2.45.92-5.31.02-6.94-2.18l-6.65-9 1.65 11.07c.41 2.71-.98 5.37-3.37 6.45L32 61l-2.56-1.16c-2.39-1.08-3.78-3.74-3.37-6.45l1.65-11.07-6.65 9c-1.63 2.2-4.49 3.1-6.94 2.18l-2.64-.99-.99-2.64c-.92-2.45-.02-5.31 2.18-6.94l9-6.65-11.07 1.65c-2.71.41-5.37-.98-6.45-3.37L3 32l1.16-2.56c1.08-2.39 3.74-3.78 6.45-3.37l11.07 1.65-9-6.65c-2.2-1.63-3.1-4.49-2.18-6.94l.99-2.64 2.64-.99c2.45-.92 5.31-.02 6.94 2.18l6.65 9-1.65-11.07c-.41-2.71.98-5.37 3.37-6.45L32 3l2.56 1.16c2.39 1.08 3.78 3.74 3.37 6.45l-1.65 11.07 6.65-9c1.63-2.2 4.49-3.1 6.94-2.18l2.64.99.99 2.64c.92 2.45.02 5.31-2.18 6.94l-9 6.65 11.07-1.65c2.71-.41 5.37.98 6.45 3.37L61 32l-1.16 2.56c-1.08 2.39-3.74 3.78-6.45 3.37l-11.07-1.65h-.01Z"/><path d="M34 24c0 1.1-2 3-2 3s-2-1.9-2-3 2-9 2-9 2 7.9 2 9ZM27.76 24.93c.78.78.71 3.54.71 3.54s-2.75.07-3.54-.71-4.95-7.78-4.95-7.78 7 4.17 7.78 4.95ZM24 30c1.1 0 3 2 3 2s-1.9 2-3 2-9-2-9-2 7.9-2 9-2ZM24.93 36.24c.78-.78 3.54-.71 3.54-.71s.07 2.75-.71 3.54-7.78 4.95-7.78 4.95 4.17-7 4.95-7.78ZM30 40c0-1.1 2-3 2-3s2 1.9 2 3-2 9-2 9-2-7.9-2-9ZM36.24 39.07c-.78-.78-.71-3.54-.71-3.54s2.75-.07 3.54.71 4.95 7.78 4.95 7.78-7-4.17-7.78-4.95ZM40 34c-1.1 0-3-2-3-2s1.9-2 3-2 9 2 9 2-7.9 2-9 2ZM39.07 27.76c-.78.78-3.54.71-3.54.71s-.07-2.75.71-3.54 7.78-4.95 7.78-4.95-4.17 7-4.95 7.78Z" class="cls-2"/><circle cx="32" cy="32" r="4" fill="#fc2f00"/></svg>