<svg xmlns="http://www.w3.org/2000/svg" id="Layer_1" width="800" height="800" data-name="Layer 1" viewBox="0 0 64 64"><defs><style>.cls-1{fill:#f76c5e}.cls-4{fill:#feac99}</style></defs><path d="M50 31c0 9.94-8.06 18-18 18s-18-8.06-18-18S32 3 32 3s18 18.06 18 28Z" class="cls-4"/><path d="M31.54 48.99C21.81 48.75 14 40.79 14 31c0-2.57 1.21-5.69 3-8.9.02 3.36.73 6.77 3.16 8.53 2.21 1.6 3.43 3.51 4.09 5.25C23.49 37.4 23 38.84 23 40c0 4.81 3.78 8.75 8.54 8.99ZM32.46 48.99C42.19 48.75 50 40.79 50 31c0-2.57-1.21-5.69-3-8.9-.02 3.36-.73 6.77-3.16 8.53-2.21 1.6-3.43 3.51-4.09 5.25C40.51 37.4 41 38.84 41 40c0 4.81-3.78 8.75-8.54 8.99Z" class="cls-1"/><path fill="#fd5933" d="M30.53 26.72C31.41 25.66 32 25 32 25s.59.66 1.47 1.72c.57-1.95 1.79-4.23 4.37-6.09 2.15-1.56 2.96-4.42 3.13-7.4C36.48 7.5 32 3 32 3s-4.48 4.5-8.97 10.23c.17 2.98.98 5.84 3.13 7.4 2.58 1.86 3.8 4.14 4.37 6.09Z"/><path fill="#606c38" d="M35.75 48.6a17.803 17.803 0 0 1-7.5 0c.41 2.33.75 6.15.75 12.4h6c0-6.25.34-10.07.75-12.4Z"/><path fill="#fd8266" d="M41 40a9 9 0 0 1-18 0c0-4.97 9-15 9-15s9 10.03 9 15Z"/><path d="M35.75 48.6c4.08-.86 7.65-3.1 10.19-6.22 2.81 1.36 6.3.88 8.63-1.45 2.86-2.86 2.96-7.43.27-10.38-.08-.1-.17-.19-.27-.28-.09-.1-.18-.19-.28-.27l.55.55c5.64 5.9 5.54 15.24-.27 21.03-5.26 5.26-13.45 5.82-19.35 1.69.14-2 .32-3.52.53-4.67ZM28.25 48.6c-4.08-.86-7.65-3.1-10.19-6.22-2.81 1.36-6.3.88-8.63-1.45-2.86-2.86-2.96-7.43-.27-10.38l.55-.55c-.1.08-.19.17-.28.27-.1.09-.19.18-.27.28-5.64 5.9-5.54 15.24.27 21.03 5.26 5.26 13.45 5.82 19.35 1.69-.14-2-.32-3.52-.53-4.67Z" class="cls-4"/></svg>