<svg version="1.1" xmlns="http://www.w3.org/2000/svg" xmlns:xlink="http://www.w3.org/1999/xlink" width="600" height="600" viewBox="0 0 600 600"><defs/><g><rect fill="rgb(62,60,49)" stroke="none" x="0" y="0" width="600" height="600" transform="matrix(1 0 0 1 0 0)" fill-opacity="1"/><svg xmlns="http://www.w3.org/2000/svg" id="gen-svg-0" width="150" height="150" data-name="Layer 1" viewBox="0 0 64 64" x="0" y="0"><defs><style>.cls-2{fill:#fd8266}</style></defs><path fill="#A14016" d="M42.31 36.28h.01l9 6.65c2.2 1.63 3.1 4.49 2.18 6.94l-.99 2.64-2.64.99c-2.45.92-5.31.02-6.94-2.18l-6.65-9 1.65 11.07c.41 2.71-.98 5.37-3.37 6.45L32 61l-2.56-1.16c-2.39-1.08-3.78-3.74-3.37-6.45l1.65-11.07-6.65 9c-1.63 2.2-4.49 3.1-6.94 2.18l-2.64-.99-.99-2.64c-.92-2.45-.02-5.31 2.18-6.94l9-6.65-11.07 1.65c-2.71.41-5.37-.98-6.45-3.37L3 32l1.16-2.56c1.08-2.39 3.74-3.78 6.45-3.37l11.07 1.65-9-6.65c-2.2-1.63-3.1-4.49-2.18-6.94l.99-2.64 2.64-.99c2.45-.92 5.31-.02 6.94 2.18l6.65 9-1.65-11.07c-.41-2.71.98-5.37 3.37-6.45L32 3l2.56 1.16c2.39 1.08 3.78 3.74 3.37 6.45l-1.65 11.07 6.65-9c1.63-2.2 4.49-3.1 6.94-2.18l2.64.99.99 2.64c.92 2.45.02 5.31-2.18 6.94l-9 6.65 11.07-1.65c2.71-.41 5.37.98 6.45 3.37L61 32l-1.16 2.56c-1.08 2.39-3.74 3.78-6.45 3.37l-11.07-1.65h-.01Z" stroke-width="4%" stroke="#CFC89A"/><path d="M34 24c0 1.1-2 3-2 3s-2-1.9-2-3 2-9 2-9 2 7.9 2 9ZM27.76 24.93c.78.78.71 3.54.71 3.54s-2.75.07-3.54-.71-4.95-7.78-4.95-7.78 7 4.17 7.78 4.95ZM24 30c1.1 0 3 2 3 2s-1.9 2-3 2-9-2-9-2 7.9-2 9-2ZM24.93 36.24c.78-.78 3.54-.71 3.54-.71s.07 2.75-.71 3.54-7.78 4.95-7.78 4.95 4.17-7 4.95-7.78ZM30 40c0-1.1 2-3 2-3s2 1.9 2 3-2 9-2 9-2-7.9-2-9ZM36.24 39.07c-.78-.78-.71-3.54-.71-3.54s2.75-.07 3.54.71 4.95 7.78 4.95 7.78-7-4.17-7.78-4.95ZM40 34c-1.1 0-3-2-3-2s1.9-2 3-2 9 2 9 2-7.9 2-9 2ZM39.07 27.76c-.78.78-3.54.71-3.54.71s-.07-2.75.71-3.54 7.78-4.95 7.78-4.95-4.17 7-4.95 7.78Z" class="cls-2" stroke-width="4%" stroke="#322938" fill="#CFC89A"/><circle cx="32" cy="32" r="4" fill="#fc2f00"/></svg><svg xmlns="http://www.w3.org/2000/svg" id="gen-svg-1" width="150" height="150" data-name="Layer 1" viewBox="0 0 64 64" x="0" y="150"><defs><style>.cls-2{fill:#fd8266}.cls-4{fill:#feac99}</style></defs><path fill="#A14016" d="M18 46c-5.52 0-10-6.27-10-14s4.48-14 10-14c0-5.52 6.27-10 14-10s14 4.48 14 10c5.52 0 10 6.27 10 14s-4.48 14-10 14c0 5.52-6.27 10-14 10s-14-4.48-14-10Z" stroke-width="4%" stroke="#89A194"/><path d="M8.76 26.68C8.27 28.32 8 30.12 8 32s.27 3.68.76 5.32c1 1.32 2.37 2.28 3.93 2.68-.11-.59-.18-1.21-.18-1.85 0-2.45.97-4.65 2.49-6.15-1.52-1.5-2.49-3.7-2.49-6.15 0-.64.07-1.26.18-1.85-1.56.4-2.93 1.36-3.93 2.68ZM37.32 8.76C35.68 8.27 33.88 8 32 8s-3.68.27-5.32.76c-1.32 1-2.28 2.37-2.68 3.93.59-.11 1.21-.18 1.85-.18 2.45 0 4.65.97 6.15 2.49 1.5-1.52 3.7-2.49 6.15-2.49.64 0 1.26.07 1.85.18-.4-1.56-1.36-2.93-2.68-3.93ZM55.24 37.32c.49-1.64.76-3.44.76-5.32s-.27-3.68-.76-5.32c-1-1.32-2.37-2.28-3.93-2.68.11.59.18 1.21.18 1.85 0 2.45-.97 4.65-2.49 6.15 1.52 1.5 2.49 3.7 2.49 6.15 0 .64-.07 1.26-.18 1.85 1.56-.4 2.93-1.36 3.93-2.68ZM37.32 55.24c-1.64.49-3.44.76-5.32.76s-3.68-.27-5.32-.76c-1.32-1-2.28-2.37-2.68-3.93.59.11 1.21.18 1.85.18 2.45 0 4.65-.97 6.15-2.49 1.5 1.52 3.7 2.49 6.15 2.49.64 0 1.26-.07 1.85-.18-.4 1.56-1.36 2.93-2.68 3.93ZM32 27c-1.5-1.52-3.7-2.49-6.15-2.49-.64 0-1.25.06-1.85.18.84-3.26 4.1-5.69 8-5.69s7.16 2.43 8 5.69c-.59-.12-1.21-.18-1.85-.18-2.45 0-4.66.96-6.15 2.49ZM27.67 34.5c-.57 2.06-.3 4.45.92 6.57.32.55.68 1.05 1.08 1.51-3.24.9-6.98-.71-8.93-4.08s-1.47-7.42.93-9.78c.19.57.45 1.14.76 1.69 1.23 2.12 3.16 3.55 5.23 4.08ZM36.33 34.5c2.07-.53 4.01-1.96 5.23-4.08.32-.55.57-1.12.76-1.69 2.4 2.36 2.88 6.4.93 9.78-1.95 3.38-5.69 4.98-8.93 4.08.4-.46.76-.96 1.08-1.51 1.23-2.12 1.49-4.51.92-6.57Z" class="cls-2" stroke-width="4%" stroke="#CC883A" fill="#89A194"/><circle cx="32" cy="32" r="5" fill="#f76c5e"/><path d="M51.71 43.49C50.09 45.07 48.12 46 46 46c0 2.17-.97 4.18-2.62 5.82l.2.26c1.63 2.2 4.49 3.1 6.94 2.18l2.64-.99.99-2.63c.92-2.45.02-5.31-2.18-6.95l-.26-.2ZM51.82 20.62C50.18 18.97 48.17 18 46 18c0-2.12-.93-4.09-2.51-5.71l.2-.26c1.64-2.2 4.5-3.1 6.95-2.18l2.63.99.99 2.64c.92 2.45.02 5.31-2.18 6.94l-.26.2ZM20.62 12.18C18.97 13.82 18 15.83 18 18c-2.12 0-4.09.93-5.71 2.51l-.26-.2c-2.2-1.64-3.1-4.5-2.18-6.95l.99-2.63 2.64-.99c2.45-.92 5.31-.02 6.94 2.18l.2.26ZM20.51 51.71C18.93 50.09 18 48.12 18 46c-2.17 0-4.18-.97-5.82-2.62l-.26.2c-2.2 1.63-3.1 4.49-2.18 6.94l.99 2.64 2.63.99c2.45.92 5.31.02 6.95-2.18l.2-.26Z" class="cls-4" stroke-width="4%" stroke="#CFC89A" fill="#CC883A"/></svg><svg xmlns="http://www.w3.org/2000/svg" id="gen-svg-2" width="150" height="150" data-name="Layer 1" viewBox="0 0 64 64" x="0" y="300"><defs><style>.cls-1{fill:#f76c5e}.cls-4{fill:#feac99}</style></defs><path d="M50 31c0 9.94-8.06 18-18 18s-18-8.06-18-18S32 3 32 3s18 18.06 18 28Z" class="cls-4" stroke-width="4%" stroke="#CC883A" fill="#A14016"/><path d="M31.54 48.99C21.81 48.75 14 40.79 14 31c0-2.57 1.21-5.69 3-8.9.02 3.36.73 6.77 3.16 8.53 2.21 1.6 3.43 3.51 4.09 5.25C23.49 37.4 23 38.84 23 40c0 4.81 3.78 8.75 8.54 8.99ZM32.46 48.99C42.19 48.75 50 40.79 50 31c0-2.57-1.21-5.69-3-8.9-.02 3.36-.73 6.77-3.16 8.53-2.21 1.6-3.43 3.51-4.09 5.25C40.51 37.4 41 38.84 41 40c0 4.81-3.78 8.75-8.54 8.99Z" class="cls-1" stroke-width="4%" stroke="#CFC89A" fill="#CC883A"/><path fill="#CFC89A" d="M30.53 26.72C31.41 25.66 32 25 32 25s.59.66 1.47 1.72c.57-1.95 1.79-4.23 4.37-6.09 2.15-1.56 2.96-4.42 3.13-7.4C36.48 7.5 32 3 32 3s-4.48 4.5-8.97 10.23c.17 2.98.98 5.84 3.13 7.4 2.58 1.86 3.8 4.14 4.37 6.09Z" stroke-width="4%" stroke="#322938"/><path fill="#322938" d="M35.75 48.6a17.803 17.803 0 0 1-7.5 0c.41 2.33.75 6.15.75 12.4h6c0-6.25.34-10.07.75-12.4Z" stroke-width="4%" stroke="#89A194"/><path fill="#89A194" d="M41 40a9 9 0 0 1-18 0c0-4.97 9-15 9-15s9 10.03 9 15Z" stroke-width="4%" stroke="undefined"/><path d="M35.75 48.6c4.08-.86 7.65-3.1 10.19-6.22 2.81 1.36 6.3.88 8.63-1.45 2.86-2.86 2.96-7.43.27-10.38-.08-.1-.17-.19-.27-.28-.09-.1-.18-.19-.28-.27l.55.55c5.64 5.9 5.54 15.24-.27 21.03-5.26 5.26-13.45 5.82-19.35 1.69.14-2 .32-3.52.53-4.67ZM28.25 48.6c-4.08-.86-7.65-3.1-10.19-6.22-2.81 1.36-6.3.88-8.63-1.45-2.86-2.86-2.96-7.43-.27-10.38l.55-.55c-.1.08-.19.17-.28.27-.1.09-.19.18-.27.28-5.64 5.9-5.54 15.24.27 21.03 5.26 5.26 13.45 5.82 19.35 1.69-.14-2-.32-3.52-.53-4.67Z" class="cls-4" stroke-width="4%" stroke="#CC883A" fill="#A14016"/></svg><svg xmlns="http://www.w3.org/2000/svg" id="gen-svg-3" width="150" height="150" data-name="Layer 1" viewBox="0 0 64 64" x="0" y="450"><defs><style>.cls-1{fill:#f76c5e}.cls-2{fill:#fd8266}.cls-3{fill:#fd5933}.cls-4{fill:#feac99}</style></defs><rect width="16" height="10" x="24" y="28" fill="#fed5cc" rx="5" ry="5"/><path d="M24.93 30.56c-1.56-1.57-4.24-9.9-4.24-9.9s2.18.7 4.52 1.6c.26-.99.73-2.23 1.3-3.56-4.83-1.92-11.48-3.7-11.48-3.7s3.63 13.53 6.11 16.01c1.25 1.25 2.93 1.81 4.65 1.73l-.86-2.18Z" class="cls-3" stroke-width="4%" stroke="#CFC89A" fill="#CC883A"/><path d="M16 31.97s2.05-1.05 4.34-2.07c.27.47.54.85.8 1.11 1.25 1.25 2.92 1.81 4.64 1.73h.01-.01c-.3.16-.59.38-.85.64-.37.37-.79 1.11-1.24 2.03-3.13-1.1-7.69-3.44-7.69-3.44Z" class="cls-4" stroke-width="4%" stroke="#322938" fill="#CFC89A"/><path d="M22.28 38.76h.01c.44-1.16.93-2.36 1.4-3.35-3.13-1.1-7.69-3.44-7.69-3.44s2.05-1.05 4.34-2.07c-.53-.88-1.07-2.08-1.61-3.42C13.96 28.54 8 31.97 8 31.97s9.73 5.61 14.29 6.79h-.01ZM39 23.65c0 3.51-3.13 6.35-7 6.35s-7-2.84-7-6.35S32 8 32 8s7 12.14 7 15.65Z" class="cls-2" stroke-width="4%" stroke="#A14016" fill="#322938"/><path fill="#A14016" d="M28 40c.49 2.21.98 8.34.98 16h6.03c0-7.68.49-13.8.98-16.01L31.97 36l-3.98 4Z" stroke-width="4%" stroke="#89A194"/><path d="M36 26c0 2.21-1.79 4-4 4s-4-1.79-4-4 4-10 4-10 4 7.79 4 10Z" class="cls-3" stroke-width="4%" stroke="undefined" fill="#89A194"/><path d="M31.11 29.95c-.15.22-.32.44-.52.64a4.008 4.008 0 0 1-5.66 0c-1.56-1.57-4.24-9.9-4.24-9.9s2.18.7 4.52 1.6c-.13.53-.21.99-.21 1.36 0 3.24 2.66 5.9 6.11 6.3Z" class="cls-4" stroke-width="4%" stroke="#CFC89A" fill="#CC883A"/><path d="M24.93 33.41c1.56-1.56 4.09-1.56 5.66 0s1.56 4.09 0 5.66-9.9 4.24-9.9 4.24 2.68-8.34 4.24-9.9Z" class="cls-1" stroke-width="4%" stroke="#322938" fill="#CFC89A"/><path d="M32.89 29.95c.15.22.32.44.52.64a4.008 4.008 0 0 0 5.66 0c1.56-1.57 4.24-9.9 4.24-9.9s-2.18.7-4.52 1.6c.13.53.21.99.21 1.36 0 3.24-2.66 5.9-6.11 6.3Z" class="cls-4" stroke-width="4%" stroke="#A14016" fill="#322938"/><path d="M39.07 30.59c1.56-1.57 4.24-9.9 4.24-9.9s-2.18.7-4.52 1.6c-.26-.99-.73-2.23-1.3-3.56 4.83-1.92 11.48-3.7 11.48-3.7s-3.63 13.53-6.11 16.01c-1.25 1.25-2.93 1.81-4.65 1.73l.86-2.18Z" class="cls-3" stroke-width="4%" stroke="#89A194" fill="#A14016"/><path d="M40.31 35.44c-.45-.92-.87-1.66-1.24-2.03-.26-.26-.55-.48-.85-.64 1.72.08 3.39-.48 4.64-1.73.26-.26.53-.64.8-1.11C45.95 30.95 48 32 48 32s-4.56 2.34-7.69 3.44Z" class="cls-4" stroke-width="4%" stroke="undefined" fill="#89A194"/><path d="M41.71 38.79C46.27 37.61 56 32 56 32s-5.96-3.43-10.73-5.49c-.54 1.34-1.08 2.54-1.61 3.42C45.95 30.95 48 32 48 32s-4.56 2.34-7.69 3.44c.47.99.96 2.19 1.4 3.35Z" class="cls-2" stroke-width="4%" stroke="#CFC89A" fill="#CC883A"/><path d="M33.41 39.07c-1.56-1.56-1.56-4.09 0-5.66s4.09-1.56 5.66 0 4.24 9.9 4.24 9.9-8.34-2.68-9.9-4.24Z" class="cls-1" stroke-width="4%" stroke="#322938" fill="#CFC89A"/></svg><svg xmlns="http://www.w3.org/2000/svg" id="gen-svg-4" width="150" height="150" data-name="Layer 1" viewBox="0 0 64 64" x="150" y="0"><defs><style>.cls-1{fill:#fd8266}.cls-3{fill:#feac99}</style></defs><path d="M42 14.69C42 19.83 37.52 24 32 24s-10-4.17-10-9.31S32 2 32 2s10 7.55 10 12.69Z" class="cls-1" stroke-width="4%" stroke="#322938" fill="#89A194"/><path d="M39 17.65c0 3.51-3.13 6.35-7 6.35s-7-2.84-7-6.35S32 6 32 6s7 8.14 7 11.65Z" class="cls-3" stroke-width="4%" stroke="#CFC89A" fill="#322938"/><path d="M36 20c0 2.21-1.79 4-4 4s-4-1.79-4-4 4-6 4-6 4 3.79 4 6ZM14.69 22C19.83 22 24 26.48 24 32s-4.17 10-9.31 10S2 32 2 32s7.55-10 12.69-10Z" class="cls-1" stroke-width="4%" stroke="#CC883A" fill="#CFC89A"/><path d="M17.65 25c3.51 0 6.35 3.13 6.35 7s-2.84 7-6.35 7S6 32 6 32s8.14-7 11.65-7Z" class="cls-3" stroke-width="4%" stroke="#A14016" fill="#CC883A"/><path d="M20 28c2.21 0 4 1.79 4 4s-1.79 4-4 4-6-4-6-4 3.79-4 6-4ZM22 49.31C22 44.17 26.48 40 32 40s10 4.17 10 9.31S32 62 32 62s-10-7.55-10-12.69Z" class="cls-1" stroke-width="4%" stroke="undefined" fill="#A14016"/><path d="M25 46.35c0-3.51 3.13-6.35 7-6.35s7 2.84 7 6.35S32 58 32 58s-7-8.14-7-11.65Z" class="cls-3" stroke-width="4%" stroke="#322938" fill="#89A194"/><path d="M28 44c0-2.21 1.79-4 4-4s4 1.79 4 4-4 6-4 6-4-3.79-4-6ZM49.31 42C44.17 42 40 37.52 40 32s4.17-10 9.31-10S62 32 62 32s-7.55 10-12.69 10Z" class="cls-1" stroke-width="4%" stroke="#CFC89A" fill="#322938"/><path d="M46.35 39C42.84 39 40 35.87 40 32s2.84-7 6.35-7S58 32 58 32s-8.14 7-11.65 7Z" class="cls-3" stroke-width="4%" stroke="#CC883A" fill="#CFC89A"/><path d="M44 36c-2.21 0-4-1.79-4-4s1.79-4 4-4 6 4 6 4-3.79 4-6 4Z" class="cls-1" stroke-width="4%" stroke="#A14016" fill="#CC883A"/><circle cx="32" cy="32" r="11" class="cls-3"/><circle cx="32" cy="32" r="5" fill="#fd5933"/></svg><svg xmlns="http://www.w3.org/2000/svg" id="gen-svg-5" width="150" height="150" data-name="Layer 1" viewBox="0 0 64 64" x="150" y="150"><defs><style>.cls-2{fill:#fd8266}</style></defs><path fill="#322938" d="M42.31 36.28h.01l9 6.65c2.2 1.63 3.1 4.49 2.18 6.94l-.99 2.64-2.64.99c-2.45.92-5.31.02-6.94-2.18l-6.65-9 1.65 11.07c.41 2.71-.98 5.37-3.37 6.45L32 61l-2.56-1.16c-2.39-1.08-3.78-3.74-3.37-6.45l1.65-11.07-6.65 9c-1.63 2.2-4.49 3.1-6.94 2.18l-2.64-.99-.99-2.64c-.92-2.45-.02-5.31 2.18-6.94l9-6.65-11.07 1.65c-2.71.41-5.37-.98-6.45-3.37L3 32l1.16-2.56c1.08-2.39 3.74-3.78 6.45-3.37l11.07 1.65-9-6.65c-2.2-1.63-3.1-4.49-2.18-6.94l.99-2.64 2.64-.99c2.45-.92 5.31-.02 6.94 2.18l6.65 9-1.65-11.07c-.41-2.71.98-5.37 3.37-6.45L32 3l2.56 1.16c2.39 1.08 3.78 3.74 3.37 6.45l-1.65 11.07 6.65-9c1.63-2.2 4.49-3.1 6.94-2.18l2.64.99.99 2.64c.92 2.45.02 5.31-2.18 6.94l-9 6.65 11.07-1.65c2.71-.41 5.37.98 6.45 3.37L61 32l-1.16 2.56c-1.08 2.39-3.74 3.78-6.45 3.37l-11.07-1.65h-.01Z" stroke-width="4%" stroke="#CC883A"/><path d="M34 24c0 1.1-2 3-2 3s-2-1.9-2-3 2-9 2-9 2 7.9 2 9ZM27.76 24.93c.78.78.71 3.54.71 3.54s-2.75.07-3.54-.71-4.95-7.78-4.95-7.78 7 4.17 7.78 4.95ZM24 30c1.1 0 3 2 3 2s-1.9 2-3 2-9-2-9-2 7.9-2 9-2ZM24.93 36.24c.78-.78 3.54-.71 3.54-.71s.07 2.75-.71 3.54-7.78 4.95-7.78 4.95 4.17-7 4.95-7.78ZM30 40c0-1.1 2-3 2-3s2 1.9 2 3-2 9-2 9-2-7.9-2-9ZM36.24 39.07c-.78-.78-.71-3.54-.71-3.54s2.75-.07 3.54.71 4.95 7.78 4.95 7.78-7-4.17-7.78-4.95ZM40 34c-1.1 0-3-2-3-2s1.9-2 3-2 9 2 9 2-7.9 2-9 2ZM39.07 27.76c-.78.78-3.54.71-3.54.71s-.07-2.75.71-3.54 7.78-4.95 7.78-4.95-4.17 7-4.95 7.78Z" class="cls-2" stroke-width="4%" stroke="#A14016" fill="#CC883A"/><circle cx="32" cy="32" r="4" fill="#fc2f00"/></svg><svg xmlns="http://www.w3.org/2000/svg" id="gen-svg-6" width="150" height="150" data-name="Layer 1" viewBox="0 0 64 64" x="150" y="300"><defs><style>.cls-2{fill:#fd8266}.cls-4{fill:#feac99}</style></defs><path fill="#A14016" d="M18 46c-5.52 0-10-6.27-10-14s4.48-14 10-14c0-5.52 6.27-10 14-10s14 4.48 14 10c5.52 0 10 6.27 10 14s-4.48 14-10 14c0 5.52-6.27 10-14 10s-14-4.48-14-10Z" stroke-width="4%" stroke="#CC883A"/><path d="M8.76 26.68C8.27 28.32 8 30.12 8 32s.27 3.68.76 5.32c1 1.32 2.37 2.28 3.93 2.68-.11-.59-.18-1.21-.18-1.85 0-2.45.97-4.65 2.49-6.15-1.52-1.5-2.49-3.7-2.49-6.15 0-.64.07-1.26.18-1.85-1.56.4-2.93 1.36-3.93 2.68ZM37.32 8.76C35.68 8.27 33.88 8 32 8s-3.68.27-5.32.76c-1.32 1-2.28 2.37-2.68 3.93.59-.11 1.21-.18 1.85-.18 2.45 0 4.65.97 6.15 2.49 1.5-1.52 3.7-2.49 6.15-2.49.64 0 1.26.07 1.85.18-.4-1.56-1.36-2.93-2.68-3.93ZM55.24 37.32c.49-1.64.76-3.44.76-5.32s-.27-3.68-.76-5.32c-1-1.32-2.37-2.28-3.93-2.68.11.59.18 1.21.18 1.85 0 2.45-.97 4.65-2.49 6.15 1.52 1.5 2.49 3.7 2.49 6.15 0 .64-.07 1.26-.18 1.85 1.56-.4 2.93-1.36 3.93-2.68ZM37.32 55.24c-1.64.49-3.44.76-5.32.76s-3.68-.27-5.32-.76c-1.32-1-2.28-2.37-2.68-3.93.59.11 1.21.18 1.85.18 2.45 0 4.65-.97 6.15-2.49 1.5 1.52 3.7 2.49 6.15 2.49.64 0 1.26-.07 1.85-.18-.4 1.56-1.36 2.93-2.68 3.93ZM32 27c-1.5-1.52-3.7-2.49-6.15-2.49-.64 0-1.25.06-1.85.18.84-3.26 4.1-5.69 8-5.69s7.16 2.43 8 5.69c-.59-.12-1.21-.18-1.85-.18-2.45 0-4.66.96-6.15 2.49ZM27.67 34.5c-.57 2.06-.3 4.45.92 6.57.32.55.68 1.05 1.08 1.51-3.24.9-6.98-.71-8.93-4.08s-1.47-7.42.93-9.78c.19.57.45 1.14.76 1.69 1.23 2.12 3.16 3.55 5.23 4.08ZM36.33 34.5c2.07-.53 4.01-1.96 5.23-4.08.32-.55.57-1.12.76-1.69 2.4 2.36 2.88 6.4.93 9.78-1.95 3.38-5.69 4.98-8.93 4.08.4-.46.76-.96 1.08-1.51 1.23-2.12 1.49-4.51.92-6.57Z" class="cls-2" stroke-width="4%" stroke="#322938" fill="#CC883A"/><circle cx="32" cy="32" r="5" fill="#f76c5e"/><path d="M51.71 43.49C50.09 45.07 48.12 46 46 46c0 2.17-.97 4.18-2.62 5.82l.2.26c1.63 2.2 4.49 3.1 6.94 2.18l2.64-.99.99-2.63c.92-2.45.02-5.31-2.18-6.95l-.26-.2ZM51.82 20.62C50.18 18.97 48.17 18 46 18c0-2.12-.93-4.09-2.51-5.71l.2-.26c1.64-2.2 4.5-3.1 6.95-2.18l2.63.99.99 2.64c.92 2.45.02 5.31-2.18 6.94l-.26.2ZM20.62 12.18C18.97 13.82 18 15.83 18 18c-2.12 0-4.09.93-5.71 2.51l-.26-.2c-2.2-1.64-3.1-4.5-2.18-6.95l.99-2.63 2.64-.99c2.45-.92 5.31-.02 6.94 2.18l.2.26ZM20.51 51.71C18.93 50.09 18 48.12 18 46c-2.17 0-4.18-.97-5.82-2.62l-.26.2c-2.2 1.63-3.1 4.49-2.18 6.94l.99 2.64 2.63.99c2.45.92 5.31.02 6.95-2.18l.2-.26Z" class="cls-4" stroke-width="4%" stroke="#89A194" fill="#322938"/></svg><svg xmlns="http://www.w3.org/2000/svg" id="gen-svg-7" width="150" height="150" data-name="Layer 1" viewBox="0 0 64 64" x="150" y="450"><defs><style>.cls-1{fill:#f76c5e}.cls-4{fill:#feac99}</style></defs><path d="M50 31c0 9.94-8.06 18-18 18s-18-8.06-18-18S32 3 32 3s18 18.06 18 28Z" class="cls-4" stroke-width="4%" stroke="#322938" fill="#A14016"/><path d="M31.54 48.99C21.81 48.75 14 40.79 14 31c0-2.57 1.21-5.69 3-8.9.02 3.36.73 6.77 3.16 8.53 2.21 1.6 3.43 3.51 4.09 5.25C23.49 37.4 23 38.84 23 40c0 4.81 3.78 8.75 8.54 8.99ZM32.46 48.99C42.19 48.75 50 40.79 50 31c0-2.57-1.21-5.69-3-8.9-.02 3.36-.73 6.77-3.16 8.53-2.21 1.6-3.43 3.51-4.09 5.25C40.51 37.4 41 38.84 41 40c0 4.81-3.78 8.75-8.54 8.99Z" class="cls-1" stroke-width="4%" stroke="#CC883A" fill="#322938"/><path fill="#CC883A" d="M30.53 26.72C31.41 25.66 32 25 32 25s.59.66 1.47 1.72c.57-1.95 1.79-4.23 4.37-6.09 2.15-1.56 2.96-4.42 3.13-7.4C36.48 7.5 32 3 32 3s-4.48 4.5-8.97 10.23c.17 2.98.98 5.84 3.13 7.4 2.58 1.86 3.8 4.14 4.37 6.09Z" stroke-width="4%" stroke="#89A194"/><path fill="#89A194" d="M35.75 48.6a17.803 17.803 0 0 1-7.5 0c.41 2.33.75 6.15.75 12.4h6c0-6.25.34-10.07.75-12.4Z" stroke-width="4%" stroke="#CFC89A"/><path fill="#CFC89A" d="M41 40a9 9 0 0 1-18 0c0-4.97 9-15 9-15s9 10.03 9 15Z" stroke-width="4%" stroke="undefined"/><path d="M35.75 48.6c4.08-.86 7.65-3.1 10.19-6.22 2.81 1.36 6.3.88 8.63-1.45 2.86-2.86 2.96-7.43.27-10.38-.08-.1-.17-.19-.27-.28-.09-.1-.18-.19-.28-.27l.55.55c5.64 5.9 5.54 15.24-.27 21.03-5.26 5.26-13.45 5.82-19.35 1.69.14-2 .32-3.52.53-4.67ZM28.25 48.6c-4.08-.86-7.65-3.1-10.19-6.22-2.81 1.36-6.3.88-8.63-1.45-2.86-2.86-2.96-7.43-.27-10.38l.55-.55c-.1.08-.19.17-.28.27-.1.09-.19.18-.27.28-5.64 5.9-5.54 15.24.27 21.03 5.26 5.26 13.45 5.82 19.35 1.69-.14-2-.32-3.52-.53-4.67Z" class="cls-4" stroke-width="4%" stroke="#322938" fill="#A14016"/></svg><svg xmlns="http://www.w3.org/2000/svg" id="gen-svg-8" width="150" height="150" data-name="Layer 1" viewBox="0 0 64 64" x="300" y="0"><defs><style>.cls-1{fill:#f76c5e}.cls-2{fill:#fd8266}.cls-3{fill:#fd5933}.cls-4{fill:#feac99}</style></defs><rect width="16" height="10" x="24" y="28" fill="#fed5cc" rx="5" ry="5"/><path d="M24.93 30.56c-1.56-1.57-4.24-9.9-4.24-9.9s2.18.7 4.52 1.6c.26-.99.73-2.23 1.3-3.56-4.83-1.92-11.48-3.7-11.48-3.7s3.63 13.53 6.11 16.01c1.25 1.25 2.93 1.81 4.65 1.73l-.86-2.18Z" class="cls-3" stroke-width="4%" stroke="#CC883A" fill="#CFC89A"/><path d="M16 31.97s2.05-1.05 4.34-2.07c.27.47.54.85.8 1.11 1.25 1.25 2.92 1.81 4.64 1.73h.01-.01c-.3.16-.59.38-.85.64-.37.37-.79 1.11-1.24 2.03-3.13-1.1-7.69-3.44-7.69-3.44Z" class="cls-4" stroke-width="4%" stroke="#322938" fill="#CC883A"/><path d="M22.28 38.76h.01c.44-1.16.93-2.36 1.4-3.35-3.13-1.1-7.69-3.44-7.69-3.44s2.05-1.05 4.34-2.07c-.53-.88-1.07-2.08-1.61-3.42C13.96 28.54 8 31.97 8 31.97s9.73 5.61 14.29 6.79h-.01ZM39 23.65c0 3.51-3.13 6.35-7 6.35s-7-2.84-7-6.35S32 8 32 8s7 12.14 7 15.65Z" class="cls-2" stroke-width="4%" stroke="#89A194" fill="#322938"/><path fill="#89A194" d="M28 40c.49 2.21.98 8.34.98 16h6.03c0-7.68.49-13.8.98-16.01L31.97 36l-3.98 4Z" stroke-width="4%" stroke="#A14016"/><path d="M36 26c0 2.21-1.79 4-4 4s-4-1.79-4-4 4-10 4-10 4 7.79 4 10Z" class="cls-3" stroke-width="4%" stroke="undefined" fill="#A14016"/><path d="M31.11 29.95c-.15.22-.32.44-.52.64a4.008 4.008 0 0 1-5.66 0c-1.56-1.57-4.24-9.9-4.24-9.9s2.18.7 4.52 1.6c-.13.53-.21.99-.21 1.36 0 3.24 2.66 5.9 6.11 6.3Z" class="cls-4" stroke-width="4%" stroke="#CC883A" fill="#CFC89A"/><path d="M24.93 33.41c1.56-1.56 4.09-1.56 5.66 0s1.56 4.09 0 5.66-9.9 4.24-9.9 4.24 2.68-8.34 4.24-9.9Z" class="cls-1" stroke-width="4%" stroke="#322938" fill="#CC883A"/><path d="M32.89 29.95c.15.22.32.44.52.64a4.008 4.008 0 0 0 5.66 0c1.56-1.57 4.24-9.9 4.24-9.9s-2.18.7-4.52 1.6c.13.53.21.99.21 1.36 0 3.24-2.66 5.9-6.11 6.3Z" class="cls-4" stroke-width="4%" stroke="#89A194" fill="#322938"/><path d="M39.07 30.59c1.56-1.57 4.24-9.9 4.24-9.9s-2.18.7-4.52 1.6c-.26-.99-.73-2.23-1.3-3.56 4.83-1.92 11.48-3.7 11.48-3.7s-3.63 13.53-6.11 16.01c-1.25 1.25-2.93 1.81-4.65 1.73l.86-2.18Z" class="cls-3" stroke-width="4%" stroke="#A14016" fill="#89A194"/><path d="M40.31 35.44c-.45-.92-.87-1.66-1.24-2.03-.26-.26-.55-.48-.85-.64 1.72.08 3.39-.48 4.64-1.73.26-.26.53-.64.8-1.11C45.95 30.95 48 32 48 32s-4.56 2.34-7.69 3.44Z" class="cls-4" stroke-width="4%" stroke="undefined" fill="#A14016"/><path d="M41.71 38.79C46.27 37.61 56 32 56 32s-5.96-3.43-10.73-5.49c-.54 1.34-1.08 2.54-1.61 3.42C45.95 30.95 48 32 48 32s-4.56 2.34-7.69 3.44c.47.99.96 2.19 1.4 3.35Z" class="cls-2" stroke-width="4%" stroke="#CC883A" fill="#CFC89A"/><path d="M33.41 39.07c-1.56-1.56-1.56-4.09 0-5.66s4.09-1.56 5.66 0 4.24 9.9 4.24 9.9-8.34-2.68-9.9-4.24Z" class="cls-1" stroke-width="4%" stroke="#322938" fill="#CC883A"/></svg><svg xmlns="http://www.w3.org/2000/svg" id="gen-svg-9" width="150" height="150" data-name="Layer 1" viewBox="0 0 64 64" x="300" y="150"><defs><style>.cls-1{fill:#fd8266}.cls-3{fill:#feac99}</style></defs><path d="M42 14.69C42 19.83 37.52 24 32 24s-10-4.17-10-9.31S32 2 32 2s10 7.55 10 12.69Z" class="cls-1" stroke-width="4%" stroke="#A14016" fill="#89A194"/><path d="M39 17.65c0 3.51-3.13 6.35-7 6.35s-7-2.84-7-6.35S32 6 32 6s7 8.14 7 11.65Z" class="cls-3" stroke-width="4%" stroke="#CFC89A" fill="#A14016"/><path d="M36 20c0 2.21-1.79 4-4 4s-4-1.79-4-4 4-6 4-6 4 3.79 4 6ZM14.69 22C19.83 22 24 26.48 24 32s-4.17 10-9.31 10S2 32 2 32s7.55-10 12.69-10Z" class="cls-1" stroke-width="4%" stroke="#322938" fill="#CFC89A"/><path d="M17.65 25c3.51 0 6.35 3.13 6.35 7s-2.84 7-6.35 7S6 32 6 32s8.14-7 11.65-7Z" class="cls-3" stroke-width="4%" stroke="#CC883A" fill="#322938"/><path d="M20 28c2.21 0 4 1.79 4 4s-1.79 4-4 4-6-4-6-4 3.79-4 6-4ZM22 49.31C22 44.17 26.48 40 32 40s10 4.17 10 9.31S32 62 32 62s-10-7.55-10-12.69Z" class="cls-1" stroke-width="4%" stroke="undefined" fill="#CC883A"/><path d="M25 46.35c0-3.51 3.13-6.35 7-6.35s7 2.84 7 6.35S32 58 32 58s-7-8.14-7-11.65Z" class="cls-3" stroke-width="4%" stroke="#A14016" fill="#89A194"/><path d="M28 44c0-2.21 1.79-4 4-4s4 1.79 4 4-4 6-4 6-4-3.79-4-6ZM49.31 42C44.17 42 40 37.52 40 32s4.17-10 9.31-10S62 32 62 32s-7.55 10-12.69 10Z" class="cls-1" stroke-width="4%" stroke="#CFC89A" fill="#A14016"/><path d="M46.35 39C42.84 39 40 35.87 40 32s2.84-7 6.35-7S58 32 58 32s-8.14 7-11.65 7Z" class="cls-3" stroke-width="4%" stroke="#322938" fill="#CFC89A"/><path d="M44 36c-2.21 0-4-1.79-4-4s1.79-4 4-4 6 4 6 4-3.79 4-6 4Z" class="cls-1" stroke-width="4%" stroke="#CC883A" fill="#322938"/><circle cx="32" cy="32" r="11" class="cls-3"/><circle cx="32" cy="32" r="5" fill="#fd5933"/></svg><svg xmlns="http://www.w3.org/2000/svg" id="gen-svg-10" width="150" height="150" data-name="Layer 1" viewBox="0 0 64 64" x="300" y="300"><defs><style>.cls-2{fill:#fd8266}</style></defs><path fill="#CFC89A" d="M42.31 36.28h.01l9 6.65c2.2 1.63 3.1 4.49 2.18 6.94l-.99 2.64-2.64.99c-2.45.92-5.31.02-6.94-2.18l-6.65-9 1.65 11.07c.41 2.71-.98 5.37-3.37 6.45L32 61l-2.56-1.16c-2.39-1.08-3.78-3.74-3.37-6.45l1.65-11.07-6.65 9c-1.63 2.2-4.49 3.1-6.94 2.18l-2.64-.99-.99-2.64c-.92-2.45-.02-5.31 2.18-6.94l9-6.65-11.07 1.65c-2.71.41-5.37-.98-6.45-3.37L3 32l1.16-2.56c1.08-2.39 3.74-3.78 6.45-3.37l11.07 1.65-9-6.65c-2.2-1.63-3.1-4.49-2.18-6.94l.99-2.64 2.64-.99c2.45-.92 5.31-.02 6.94 2.18l6.65 9-1.65-11.07c-.41-2.71.98-5.37 3.37-6.45L32 3l2.56 1.16c2.39 1.08 3.78 3.74 3.37 6.45l-1.65 11.07 6.65-9c1.63-2.2 4.49-3.1 6.94-2.18l2.64.99.99 2.64c.92 2.45.02 5.31-2.18 6.94l-9 6.65 11.07-1.65c2.71-.41 5.37.98 6.45 3.37L61 32l-1.16 2.56c-1.08 2.39-3.74 3.78-6.45 3.37l-11.07-1.65h-.01Z" stroke-width="4%" stroke="#A14016"/><path d="M34 24c0 1.1-2 3-2 3s-2-1.9-2-3 2-9 2-9 2 7.9 2 9ZM27.76 24.93c.78.78.71 3.54.71 3.54s-2.75.07-3.54-.71-4.95-7.78-4.95-7.78 7 4.17 7.78 4.95ZM24 30c1.1 0 3 2 3 2s-1.9 2-3 2-9-2-9-2 7.9-2 9-2ZM24.93 36.24c.78-.78 3.54-.71 3.54-.71s.07 2.75-.71 3.54-7.78 4.95-7.78 4.95 4.17-7 4.95-7.78ZM30 40c0-1.1 2-3 2-3s2 1.9 2 3-2 9-2 9-2-7.9-2-9ZM36.24 39.07c-.78-.78-.71-3.54-.71-3.54s2.75-.07 3.54.71 4.95 7.78 4.95 7.78-7-4.17-7.78-4.95ZM40 34c-1.1 0-3-2-3-2s1.9-2 3-2 9 2 9 2-7.9 2-9 2ZM39.07 27.76c-.78.78-3.54.71-3.54.71s-.07-2.75.71-3.54 7.78-4.95 7.78-4.95-4.17 7-4.95 7.78Z" class="cls-2" stroke-width="4%" stroke="#322938" fill="#A14016"/><circle cx="32" cy="32" r="4" fill="#fc2f00"/></svg><svg xmlns="http://www.w3.org/2000/svg" id="gen-svg-11" width="150" height="150" data-name="Layer 1" viewBox="0 0 64 64" x="300" y="450"><defs><style>.cls-2{fill:#fd8266}.cls-4{fill:#feac99}</style></defs><path fill="#A14016" d="M18 46c-5.52 0-10-6.27-10-14s4.48-14 10-14c0-5.52 6.27-10 14-10s14 4.48 14 10c5.52 0 10 6.27 10 14s-4.48 14-10 14c0 5.52-6.27 10-14 10s-14-4.48-14-10Z" stroke-width="4%" stroke="#322938"/><path d="M8.76 26.68C8.27 28.32 8 30.12 8 32s.27 3.68.76 5.32c1 1.32 2.37 2.28 3.93 2.68-.11-.59-.18-1.21-.18-1.85 0-2.45.97-4.65 2.49-6.15-1.52-1.5-2.49-3.7-2.49-6.15 0-.64.07-1.26.18-1.85-1.56.4-2.93 1.36-3.93 2.68ZM37.32 8.76C35.68 8.27 33.88 8 32 8s-3.68.27-5.32.76c-1.32 1-2.28 2.37-2.68 3.93.59-.11 1.21-.18 1.85-.18 2.45 0 4.65.97 6.15 2.49 1.5-1.52 3.7-2.49 6.15-2.49.64 0 1.26.07 1.85.18-.4-1.56-1.36-2.93-2.68-3.93ZM55.24 37.32c.49-1.64.76-3.44.76-5.32s-.27-3.68-.76-5.32c-1-1.32-2.37-2.28-3.93-2.68.11.59.18 1.21.18 1.85 0 2.45-.97 4.65-2.49 6.15 1.52 1.5 2.49 3.7 2.49 6.15 0 .64-.07 1.26-.18 1.85 1.56-.4 2.93-1.36 3.93-2.68ZM37.32 55.24c-1.64.49-3.44.76-5.32.76s-3.68-.27-5.32-.76c-1.32-1-2.28-2.37-2.68-3.93.59.11 1.21.18 1.85.18 2.45 0 4.65-.97 6.15-2.49 1.5 1.52 3.7 2.49 6.15 2.49.64 0 1.26-.07 1.85-.18-.4 1.56-1.36 2.93-2.68 3.93ZM32 27c-1.5-1.52-3.7-2.49-6.15-2.49-.64 0-1.25.06-1.85.18.84-3.26 4.1-5.69 8-5.69s7.16 2.43 8 5.69c-.59-.12-1.21-.18-1.85-.18-2.45 0-4.66.96-6.15 2.49ZM27.67 34.5c-.57 2.06-.3 4.45.92 6.57.32.55.68 1.05 1.08 1.51-3.24.9-6.98-.71-8.93-4.08s-1.47-7.42.93-9.78c.19.57.45 1.14.76 1.69 1.23 2.12 3.16 3.55 5.23 4.08ZM36.33 34.5c2.07-.53 4.01-1.96 5.23-4.08.32-.55.57-1.12.76-1.69 2.4 2.36 2.88 6.4.93 9.78-1.95 3.38-5.69 4.98-8.93 4.08.4-.46.76-.96 1.08-1.51 1.23-2.12 1.49-4.51.92-6.57Z" class="cls-2" stroke-width="4%" stroke="#89A194" fill="#322938"/><circle cx="32" cy="32" r="5" fill="#f76c5e"/><path d="M51.71 43.49C50.09 45.07 48.12 46 46 46c0 2.17-.97 4.18-2.62 5.82l.2.26c1.63 2.2 4.49 3.1 6.94 2.18l2.64-.99.99-2.63c.92-2.45.02-5.31-2.18-6.95l-.26-.2ZM51.82 20.62C50.18 18.97 48.17 18 46 18c0-2.12-.93-4.09-2.51-5.71l.2-.26c1.64-2.2 4.5-3.1 6.95-2.18l2.63.99.99 2.64c.92 2.45.02 5.31-2.18 6.94l-.26.2ZM20.62 12.18C18.97 13.82 18 15.83 18 18c-2.12 0-4.09.93-5.71 2.51l-.26-.2c-2.2-1.64-3.1-4.5-2.18-6.95l.99-2.63 2.64-.99c2.45-.92 5.31-.02 6.94 2.18l.2.26ZM20.51 51.71C18.93 50.09 18 48.12 18 46c-2.17 0-4.18-.97-5.82-2.62l-.26.2c-2.2 1.63-3.1 4.49-2.18 6.94l.99 2.64 2.63.99c2.45.92 5.31.02 6.95-2.18l.2-.26Z" class="cls-4" stroke-width="4%" stroke="#CC883A" fill="#89A194"/></svg><svg xmlns="http://www.w3.org/2000/svg" id="gen-svg-12" width="150" height="150" data-name="Layer 1" viewBox="0 0 64 64" x="450" y="0"><defs><style>.cls-1{fill:#f76c5e}.cls-4{fill:#feac99}</style></defs><path d="M50 31c0 9.94-8.06 18-18 18s-18-8.06-18-18S32 3 32 3s18 18.06 18 28Z" class="cls-4" stroke-width="4%" stroke="#89A194" fill="#322938"/><path d="M31.54 48.99C21.81 48.75 14 40.79 14 31c0-2.57 1.21-5.69 3-8.9.02 3.36.73 6.77 3.16 8.53 2.21 1.6 3.43 3.51 4.09 5.25C23.49 37.4 23 38.84 23 40c0 4.81 3.78 8.75 8.54 8.99ZM32.46 48.99C42.19 48.75 50 40.79 50 31c0-2.57-1.21-5.69-3-8.9-.02 3.36-.73 6.77-3.16 8.53-2.21 1.6-3.43 3.51-4.09 5.25C40.51 37.4 41 38.84 41 40c0 4.81-3.78 8.75-8.54 8.99Z" class="cls-1" stroke-width="4%" stroke="#CFC89A" fill="#89A194"/><path fill="#CFC89A" d="M30.53 26.72C31.41 25.66 32 25 32 25s.59.66 1.47 1.72c.57-1.95 1.79-4.23 4.37-6.09 2.15-1.56 2.96-4.42 3.13-7.4C36.48 7.5 32 3 32 3s-4.48 4.5-8.97 10.23c.17 2.98.98 5.84 3.13 7.4 2.58 1.86 3.8 4.14 4.37 6.09Z" stroke-width="4%" stroke="#CC883A"/><path fill="#CC883A" d="M35.75 48.6a17.803 17.803 0 0 1-7.5 0c.41 2.33.75 6.15.75 12.4h6c0-6.25.34-10.07.75-12.4Z" stroke-width="4%" stroke="#A14016"/><path fill="#A14016" d="M41 40a9 9 0 0 1-18 0c0-4.97 9-15 9-15s9 10.03 9 15Z" stroke-width="4%" stroke="undefined"/><path d="M35.75 48.6c4.08-.86 7.65-3.1 10.19-6.22 2.81 1.36 6.3.88 8.63-1.45 2.86-2.86 2.96-7.43.27-10.38-.08-.1-.17-.19-.27-.28-.09-.1-.18-.19-.28-.27l.55.55c5.64 5.9 5.54 15.24-.27 21.03-5.26 5.26-13.45 5.82-19.35 1.69.14-2 .32-3.52.53-4.67ZM28.25 48.6c-4.08-.86-7.65-3.1-10.19-6.22-2.81 1.36-6.3.88-8.63-1.45-2.86-2.86-2.96-7.43-.27-10.38l.55-.55c-.1.08-.19.17-.28.27-.1.09-.19.18-.27.28-5.64 5.9-5.54 15.24.27 21.03 5.26 5.26 13.45 5.82 19.35 1.69-.14-2-.32-3.52-.53-4.67Z" class="cls-4" stroke-width="4%" stroke="#89A194" fill="#322938"/></svg><svg xmlns="http://www.w3.org/2000/svg" id="gen-svg-13" width="150" height="150" data-name="Layer 1" viewBox="0 0 64 64" x="450" y="150"><defs><style>.cls-1{fill:#f76c5e}.cls-2{fill:#fd8266}.cls-3{fill:#fd5933}.cls-4{fill:#feac99}</style></defs><rect width="16" height="10" x="24" y="28" fill="#fed5cc" rx="5" ry="5"/><path d="M24.93 30.56c-1.56-1.57-4.24-9.9-4.24-9.9s2.18.7 4.52 1.6c.26-.99.73-2.23 1.3-3.56-4.83-1.92-11.48-3.7-11.48-3.7s3.63 13.53 6.11 16.01c1.25 1.25 2.93 1.81 4.65 1.73l-.86-2.18Z" class="cls-3" stroke-width="4%" stroke="#89A194" fill="#A14016"/><path d="M16 31.97s2.05-1.05 4.34-2.07c.27.47.54.85.8 1.11 1.25 1.25 2.92 1.81 4.64 1.73h.01-.01c-.3.16-.59.38-.85.64-.37.37-.79 1.11-1.24 2.03-3.13-1.1-7.69-3.44-7.69-3.44Z" class="cls-4" stroke-width="4%" stroke="#CC883A" fill="#89A194"/><path d="M22.28 38.76h.01c.44-1.16.93-2.36 1.4-3.35-3.13-1.1-7.69-3.44-7.69-3.44s2.05-1.05 4.34-2.07c-.53-.88-1.07-2.08-1.61-3.42C13.96 28.54 8 31.97 8 31.97s9.73 5.61 14.29 6.79h-.01ZM39 23.65c0 3.51-3.13 6.35-7 6.35s-7-2.84-7-6.35S32 8 32 8s7 12.14 7 15.65Z" class="cls-2" stroke-width="4%" stroke="#322938" fill="#CC883A"/><path fill="#322938" d="M28 40c.49 2.21.98 8.34.98 16h6.03c0-7.68.49-13.8.98-16.01L31.97 36l-3.98 4Z" stroke-width="4%" stroke="#CFC89A"/><path d="M36 26c0 2.21-1.79 4-4 4s-4-1.79-4-4 4-10 4-10 4 7.79 4 10Z" class="cls-3" stroke-width="4%" stroke="undefined" fill="#CFC89A"/><path d="M31.11 29.95c-.15.22-.32.44-.52.64a4.008 4.008 0 0 1-5.66 0c-1.56-1.57-4.24-9.9-4.24-9.9s2.18.7 4.52 1.6c-.13.53-.21.99-.21 1.36 0 3.24 2.66 5.9 6.11 6.3Z" class="cls-4" stroke-width="4%" stroke="#89A194" fill="#A14016"/><path d="M24.93 33.41c1.56-1.56 4.09-1.56 5.66 0s1.56 4.09 0 5.66-9.9 4.24-9.9 4.24 2.68-8.34 4.24-9.9Z" class="cls-1" stroke-width="4%" stroke="#CC883A" fill="#89A194"/><path d="M32.89 29.95c.15.22.32.44.52.64a4.008 4.008 0 0 0 5.66 0c1.56-1.57 4.24-9.9 4.24-9.9s-2.18.7-4.52 1.6c.13.53.21.99.21 1.36 0 3.24-2.66 5.9-6.11 6.3Z" class="cls-4" stroke-width="4%" stroke="#322938" fill="#CC883A"/><path d="M39.07 30.59c1.56-1.57 4.24-9.9 4.24-9.9s-2.18.7-4.52 1.6c-.26-.99-.73-2.23-1.3-3.56 4.83-1.92 11.48-3.7 11.48-3.7s-3.63 13.53-6.11 16.01c-1.25 1.25-2.93 1.81-4.65 1.73l.86-2.18Z" class="cls-3" stroke-width="4%" stroke="#CFC89A" fill="#322938"/><path d="M40.31 35.44c-.45-.92-.87-1.66-1.24-2.03-.26-.26-.55-.48-.85-.64 1.72.08 3.39-.48 4.64-1.73.26-.26.53-.64.8-1.11C45.95 30.95 48 32 48 32s-4.56 2.34-7.69 3.44Z" class="cls-4" stroke-width="4%" stroke="undefined" fill="#CFC89A"/><path d="M41.71 38.79C46.27 37.61 56 32 56 32s-5.96-3.43-10.73-5.49c-.54 1.34-1.08 2.54-1.61 3.42C45.95 30.95 48 32 48 32s-4.56 2.34-7.69 3.44c.47.99.96 2.19 1.4 3.35Z" class="cls-2" stroke-width="4%" stroke="#89A194" fill="#A14016"/><path d="M33.41 39.07c-1.56-1.56-1.56-4.09 0-5.66s4.09-1.56 5.66 0 4.24 9.9 4.24 9.9-8.34-2.68-9.9-4.24Z" class="cls-1" stroke-width="4%" stroke="#CC883A" fill="#89A194"/></svg><svg xmlns="http://www.w3.org/2000/svg" id="gen-svg-14" width="150" height="150" data-name="Layer 1" viewBox="0 0 64 64" x="450" y="300"><defs><style>.cls-1{fill:#fd8266}.cls-3{fill:#feac99}</style></defs><path d="M42 14.69C42 19.83 37.52 24 32 24s-10-4.17-10-9.31S32 2 32 2s10 7.55 10 12.69Z" class="cls-1" stroke-width="4%" stroke="#89A194" fill="#322938"/><path d="M39 17.65c0 3.51-3.13 6.35-7 6.35s-7-2.84-7-6.35S32 6 32 6s7 8.14 7 11.65Z" class="cls-3" stroke-width="4%" stroke="#CFC89A" fill="#89A194"/><path d="M36 20c0 2.21-1.79 4-4 4s-4-1.79-4-4 4-6 4-6 4 3.79 4 6ZM14.69 22C19.83 22 24 26.48 24 32s-4.17 10-9.31 10S2 32 2 32s7.55-10 12.69-10Z" class="cls-1" stroke-width="4%" stroke="#A14016" fill="#CFC89A"/><path d="M17.65 25c3.51 0 6.35 3.13 6.35 7s-2.84 7-6.35 7S6 32 6 32s8.14-7 11.65-7Z" class="cls-3" stroke-width="4%" stroke="#CC883A" fill="#A14016"/><path d="M20 28c2.21 0 4 1.79 4 4s-1.79 4-4 4-6-4-6-4 3.79-4 6-4ZM22 49.31C22 44.17 26.48 40 32 40s10 4.17 10 9.31S32 62 32 62s-10-7.55-10-12.69Z" class="cls-1" stroke-width="4%" stroke="undefined" fill="#CC883A"/><path d="M25 46.35c0-3.51 3.13-6.35 7-6.35s7 2.84 7 6.35S32 58 32 58s-7-8.14-7-11.65Z" class="cls-3" stroke-width="4%" stroke="#89A194" fill="#322938"/><path d="M28 44c0-2.21 1.79-4 4-4s4 1.79 4 4-4 6-4 6-4-3.79-4-6ZM49.31 42C44.17 42 40 37.52 40 32s4.17-10 9.31-10S62 32 62 32s-7.55 10-12.69 10Z" class="cls-1" stroke-width="4%" stroke="#CFC89A" fill="#89A194"/><path d="M46.35 39C42.84 39 40 35.87 40 32s2.84-7 6.35-7S58 32 58 32s-8.14 7-11.65 7Z" class="cls-3" stroke-width="4%" stroke="#A14016" fill="#CFC89A"/><path d="M44 36c-2.21 0-4-1.79-4-4s1.79-4 4-4 6 4 6 4-3.79 4-6 4Z" class="cls-1" stroke-width="4%" stroke="#CC883A" fill="#A14016"/><circle cx="32" cy="32" r="11" class="cls-3"/><circle cx="32" cy="32" r="5" fill="#fd5933"/></svg><svg xmlns="http://www.w3.org/2000/svg" id="gen-svg-15" width="150" height="150" data-name="Layer 1" viewBox="0 0 64 64" x="450" y="450"><defs><style>.cls-2{fill:#fd8266}</style></defs><path fill="#CFC89A" d="M42.31 36.28h.01l9 6.65c2.2 1.63 3.1 4.49 2.18 6.94l-.99 2.64-2.64.99c-2.45.92-5.31.02-6.94-2.18l-6.65-9 1.65 11.07c.41 2.71-.98 5.37-3.37 6.45L32 61l-2.56-1.16c-2.39-1.08-3.78-3.74-3.37-6.45l1.65-11.07-6.65 9c-1.63 2.2-4.49 3.1-6.94 2.18l-2.64-.99-.99-2.64c-.92-2.45-.02-5.31 2.18-6.94l9-6.65-11.07 1.65c-2.71.41-5.37-.98-6.45-3.37L3 32l1.16-2.56c1.08-2.39 3.74-3.78 6.45-3.37l11.07 1.65-9-6.65c-2.2-1.63-3.1-4.49-2.18-6.94l.99-2.64 2.64-.99c2.45-.92 5.31-.02 6.94 2.18l6.65 9-1.65-11.07c-.41-2.71.98-5.37 3.37-6.45L32 3l2.56 1.16c2.39 1.08 3.78 3.74 3.37 6.45l-1.65 11.07 6.65-9c1.63-2.2 4.49-3.1 6.94-2.18l2.64.99.99 2.64c.92 2.45.02 5.31-2.18 6.94l-9 6.65 11.07-1.65c2.71-.41 5.37.98 6.45 3.37L61 32l-1.16 2.56c-1.08 2.39-3.74 3.78-6.45 3.37l-11.07-1.65h-.01Z" stroke-width="4%" stroke="#CC883A"/><path d="M34 24c0 1.1-2 3-2 3s-2-1.9-2-3 2-9 2-9 2 7.9 2 9ZM27.76 24.93c.78.78.71 3.54.71 3.54s-2.75.07-3.54-.71-4.95-7.78-4.95-7.78 7 4.17 7.78 4.95ZM24 30c1.1 0 3 2 3 2s-1.9 2-3 2-9-2-9-2 7.9-2 9-2ZM24.93 36.24c.78-.78 3.54-.71 3.54-.71s.07 2.75-.71 3.54-7.78 4.95-7.78 4.95 4.17-7 4.95-7.78ZM30 40c0-1.1 2-3 2-3s2 1.9 2 3-2 9-2 9-2-7.9-2-9ZM36.24 39.07c-.78-.78-.71-3.54-.71-3.54s2.75-.07 3.54.71 4.95 7.78 4.95 7.78-7-4.17-7.78-4.95ZM40 34c-1.1 0-3-2-3-2s1.9-2 3-2 9 2 9 2-7.9 2-9 2ZM39.07 27.76c-.78.78-3.54.71-3.54.71s-.07-2.75.71-3.54 7.78-4.95 7.78-4.95-4.17 7-4.95 7.78Z" class="cls-2" stroke-width="4%" stroke="#89A194" fill="#CC883A"/><circle cx="32" cy="32" r="4" fill="#fc2f00"/></svg></g></svg>